# xmcd
#
# Track frame offsets:
# 150
# 1296
# 23343
# 43319
# 67690
# 97116
# 120086
# 141702
# 169224
# 193733
# 217481
# 246713
# 271319
# 290125
#
# Disc length: 4218 seconds
#
#
# Revision: 0
# Processed by: cddbd v1.5.2PL0 Copyright (c) Steve Scherf et al.
# Submitted via: FreeRIP 2.96 
#
DISCID=dc10780e
DTITLE=Oscar Wilde - Die Erzählungen und Märchen
DYEAR=2007
DGENRE=Speech
TTITLE0=01 Erzählungen und Märchen
TTITLE1=02 Erzählungen und Märchen
TTITLE2=03 Erzählungen und Märchen
TTITLE3=04 Erzählungen und Märchen
TTITLE4=05 Erzählungen und Märchen
TTITLE5=06 Erzählungen und Märchen
TTITLE6=07 Erzählungen und Märchen
TTITLE7=08 Erzählungen und Märchen
TTITLE8=09 Erzählungen und Märchen
TTITLE9=10 Erzählungen und Märchen
TTITLE10=11 Erzählungen und Märchen
TTITLE11=12 Erzählungen und Märchen
TTITLE12=13 Erzählungen und Märchen
TTITLE13=14 Erzählungen und Märchen
EXTD=gelesen von Uta Krömer
EXTT0=
EXTT1=
EXTT2=
EXTT3=
EXTT4=
EXTT5=
EXTT6=
EXTT7=
EXTT8=
EXTT9=
EXTT10=
EXTT11=
EXTT12=
EXTT13=
PLAYORDER=
